<svg width="300" height="68" viewBox="0 0 300 68" fill="none" xmlns="http://www.w3.org/2000/svg">
<g clip-path="url(#clip0_2_487)">
<g clip-path="url(#clip1_2_487)">
<g opacity="0.98">
<path d="M96.2908 10.7432H117.617C135.872 10.7513 148.881 21.1426 148.877 36.1894C148.877 51.2363 135.859 61.6234 117.605 61.6193H96.2786L96.2908 10.7432ZM117.245 53.9527C130.889 53.9527 138.302 46.7934 138.306 36.1894C138.31 25.5855 130.901 18.418 117.253 18.4139H106.498L106.49 53.9486H117.245V53.9527Z" fill="black"/>
<path d="M152.04 42.997C152.04 30.4579 164.423 23.6545 176.623 23.6545C188.822 23.6545 201.202 30.4661 201.197 43.0052C201.197 55.5442 188.814 62.3476 176.614 62.3435C164.415 62.3435 152.035 55.5319 152.04 42.9929V42.997ZM176.614 55.1146C184.297 55.1146 191.256 50.6759 191.256 43.0092C191.256 35.3426 184.301 30.8998 176.619 30.8957C168.936 30.8916 161.887 35.3345 161.887 43.0011C161.887 50.6677 168.931 55.1105 176.614 55.1146Z" fill="black"/>
<path d="M206.258 24.3786H216.199V33.9803C217.827 28.3919 222.528 23.6627 231.111 23.6668C232.195 23.6668 233.099 23.7404 234.093 23.9531V31.4765C233.099 31.3334 232.285 31.2597 231.201 31.2597C222.254 31.2597 216.199 36.4144 216.199 44.2242V61.6357H206.254L206.262 24.3786H206.258Z" fill="black"/>
<path d="M249.5 18.4507C249.5 20.8807 247.798 22.8363 244.562 22.8322C241.326 22.8322 239.616 20.8071 239.616 18.377C239.616 15.9469 241.33 13.9219 244.562 13.9219C247.794 13.9219 249.5 16.0206 249.496 18.4507H249.5ZM249.5 23.6626L249.492 61.6479H239.616L239.624 23.6626H249.5Z" fill="black"/>
<path d="M255.269 43.0172C255.269 30.4782 267.562 23.6748 279.852 23.6748C288.075 23.6748 295.663 26.7594 300 32.851L292.591 36.5043C289.883 33.0637 285.272 30.9159 279.942 30.9119C272.353 30.9119 265.12 35.3506 265.12 43.0172C265.12 50.6838 272.345 55.1267 279.938 55.1308C285.268 55.1308 289.879 52.983 292.591 49.5424L300 53.1998C295.659 59.2178 288.071 62.3679 279.848 62.3679C267.558 62.3679 255.269 55.5563 255.273 43.0172H255.269Z" fill="black"/>
</g>
<path d="M41.9044 67.5063H1.18218C0.789436 66.5163 0.0530486 65.5262 0.0489576 64.5321C-0.016499 43.9951 -0.000134885 23.454 -0.000134885 2.91698C-0.000134885 0.0900705 0.0775949 0.00824952 2.81859 0.00824952C15.3699 0.00824952 27.9212 -0.00811464 40.4766 0.00824952C56.9676 0.0327958 71.3517 12.2732 73.6631 28.2241C76.1341 45.2633 66.3811 61.0056 50.2419 65.8331C47.5377 66.6431 44.6863 66.9581 41.9044 67.5022V67.5063ZM35.3096 17.8411C30.0199 17.8411 24.7343 17.8329 19.4446 17.8411C16.8386 17.8411 16.4908 18.1847 16.4868 20.758C16.4786 29.3615 16.4786 37.9608 16.4868 46.5643C16.4868 49.1294 16.8959 49.5507 19.42 49.5507C29.6558 49.5589 39.8957 49.5998 50.1315 49.5426C59.4099 49.4894 66.4056 42.5632 66.3852 33.5793C66.3647 24.7427 59.3404 17.9106 50.156 17.8452C45.2059 17.8084 40.2557 17.837 35.3096 17.837V17.8411ZM66.0456 44.3183C61.48 50.3117 55.368 52.3858 48.0082 52.2754C34.2378 52.0708 20.4592 52.214 6.68462 52.2181C3.05996 52.2181 2.36858 53.0854 2.96587 56.886C3.1336 56.9351 3.32179 57.0414 3.50589 57.0414C18.16 57.0251 32.8264 57.3114 47.4723 56.8573C55.9407 56.5955 62.0732 51.764 66.0415 44.3183H66.0456ZM66.107 23.2004C62.2941 15.141 54.2839 10.2686 44.9236 10.244C32.2454 10.2072 19.5673 10.2358 6.88508 10.2358C3.05587 10.2358 2.39312 11.0172 2.96587 15.0878H5.31822C20.2341 15.0878 35.1501 15.0878 50.066 15.096C51.011 15.096 51.9683 15.1287 52.9011 15.2556C58.4322 16.0165 62.7605 18.7902 66.1029 23.2004H66.107ZM68.2916 20.3244C67.9725 19.6821 67.6943 19.0152 67.322 18.4057C61.1732 8.27215 52.2097 2.89652 40.3211 2.76561C29.0667 2.63879 17.8123 2.73697 6.55371 2.74106C3.06814 2.74106 2.15993 3.96428 3.11315 7.54804H5.48186C18.5691 7.54804 31.6522 7.53576 44.7395 7.5644C46.3595 7.5644 48 7.65031 49.5955 7.91623C57.6385 9.24582 63.6769 13.5782 68.2875 20.3203L68.2916 20.3244ZM2.90041 64.4994C3.23588 64.5648 3.43225 64.6385 3.62453 64.6385C16.3027 64.6385 28.9849 64.9167 41.6507 64.5403C52.4797 64.2171 60.8623 59.0133 66.7534 49.8985C67.0929 49.3707 67.3466 48.7816 67.7393 48.0371C67.367 48.1271 67.2975 48.123 67.2647 48.1557C67.1215 48.2948 66.9661 48.4298 66.8474 48.5934C61.3327 56.1414 53.9075 59.8274 44.5472 59.7865C32.0082 59.7292 19.465 59.7742 6.92599 59.7742C3.06814 59.7742 2.47904 60.4493 2.90041 64.5035V64.4994ZM6.87281 18.0497C3.10087 17.5179 2.75313 17.7961 2.75313 21.1098V47.2966C2.75313 48.0125 2.8145 48.7284 2.84314 49.4157C6.70508 49.7471 6.86872 49.5957 6.86872 45.9506V18.0538L6.87281 18.0497ZM9.60972 49.4239C13.5862 49.7185 13.7335 49.5876 13.7335 46.0979V18.017C9.90427 17.5711 9.60972 17.8165 9.60972 21.1753V49.428V49.4239Z" fill="black"/>
</g>
</g>
<defs>
<clipPath id="clip0_2_487">
<rect width="300" height="67.5062" fill="white"/>
</clipPath>
<clipPath id="clip1_2_487">
<rect width="300" height="67.5062" fill="white"/>
</clipPath>
</defs>
</svg>
