<svg width="150" height="150" viewBox="0 0 150 150" fill="none" xmlns="http://www.w3.org/2000/svg">
<path d="M82.0843 127.842H18.8391C18.2291 126.304 17.0854 124.767 17.0791 123.223C16.9774 91.3268 17.0028 59.4246 17.0028 27.5288C17.0028 23.1384 17.1235 23.0113 21.3806 23.0113C40.8739 23.0113 60.3672 22.9859 79.8668 23.0113C105.479 23.0494 127.819 42.0598 131.408 66.8331C135.246 93.2965 120.099 117.746 95.0332 125.243C90.8334 126.501 86.4049 126.99 82.0843 127.835V127.842ZM71.8421 50.7073C63.6267 50.7073 55.4176 50.6946 47.2022 50.7073C43.1549 50.7073 42.6148 51.241 42.6084 55.2375C42.5957 68.5994 42.5957 81.955 42.6084 95.317C42.6084 99.3008 43.2438 99.9552 47.1641 99.9552C63.0612 99.9679 78.9646 100.031 94.8617 99.9425C109.272 99.8599 120.137 89.103 120.105 75.1502C120.073 61.4261 109.164 50.8153 94.8998 50.7136C87.2118 50.6565 79.5237 50.7009 71.8421 50.7009V50.7073ZM119.578 91.8288C112.487 101.137 102.994 104.358 91.5641 104.187C70.1774 103.869 48.7779 104.091 27.3849 104.098C21.7554 104.098 20.6816 105.445 21.6093 111.347C21.8698 111.424 22.1621 111.589 22.448 111.589C45.2071 111.563 67.9853 112.008 90.7318 111.303C103.884 110.896 113.408 103.393 119.571 91.8288H119.578ZM119.673 59.0307C113.751 46.5138 101.311 38.9465 86.7734 38.9084C67.0831 38.8512 47.3928 38.8957 27.6962 38.8957C21.7491 38.8957 20.7198 40.1092 21.6093 46.4312H25.2627C48.4285 46.4312 71.5943 46.4312 94.76 46.4439C96.2278 46.4439 97.7145 46.4948 99.1632 46.6917C107.753 47.8735 114.476 52.1814 119.667 59.0307H119.673ZM123.066 54.564C122.57 53.5665 122.138 52.5308 121.56 51.5841C112.01 35.8459 98.0894 27.497 79.6254 27.2937C62.1462 27.0968 44.6671 27.2492 27.1815 27.2556C21.7681 27.2556 20.3576 29.1554 21.838 34.7213H25.5169C45.8425 34.7213 66.1618 34.7022 86.4875 34.7467C89.0035 34.7467 91.5514 34.8801 94.0294 35.2931C106.521 37.3581 115.899 44.0867 123.06 54.5577L123.066 54.564ZM21.5076 123.172C22.0286 123.273 22.3336 123.388 22.6322 123.388C42.3225 123.388 62.0192 123.82 81.6904 123.235C98.5087 122.733 111.528 114.651 120.677 100.495C121.204 99.6756 121.598 98.7607 122.208 97.6043C121.63 97.7441 121.522 97.7377 121.471 97.7886C121.249 98.0046 121.007 98.2143 120.823 98.4684C112.258 110.191 100.726 115.916 86.1888 115.852C66.7146 115.763 47.234 115.833 27.7597 115.833C21.7681 115.833 20.8532 116.882 21.5076 123.178V123.172ZM27.6771 51.0313C21.819 50.2053 21.2789 50.6374 21.2789 55.7839V96.4543C21.2789 97.5662 21.3742 98.6781 21.4187 99.7455C27.4166 100.26 27.6708 100.025 27.6708 94.3639V51.0377L27.6771 51.0313ZM31.9278 99.7582C38.1036 100.216 38.3324 100.012 38.3324 94.5926V50.9805C32.3853 50.2879 31.9278 50.6692 31.9278 55.8856V99.7646V99.7582Z" fill="#000000"/>
</svg>
